<?xml version="1.0"?>
<svg xmlns="http://www.w3.org/2000/svg" xmlns:xlink="http://www.w3.org/1999/xlink" xmlns:svgjs="http://svgjs.com/svgjs" version="1.1" width="512" height="512" x="0" y="0" viewBox="0 0 219.396 219.396" style="enable-background:new 0 0 512 512" xml:space="preserve" class=""><g><path xmlns="http://www.w3.org/2000/svg" d="m148.876 168.465h-15.671v40.706l15.671-26.12z" fill="#eb586f" data-original="#000000" style="" class=""/><path xmlns="http://www.w3.org/2000/svg" d="m203.725 67.527v115.524l15.671 26.12v-110.302z" fill="#eb586f" data-original="#000000" style="" class=""/><path xmlns="http://www.w3.org/2000/svg" d="m70.52 183.051 15.671 26.12v-40.706h-15.671z" fill="#eb586f" data-original="#000000" style="" class=""/><path xmlns="http://www.w3.org/2000/svg" d="m90.109 0h39.178v121.451h-39.178z" fill="#eb586f" data-original="#000000" style="" class=""/><path xmlns="http://www.w3.org/2000/svg" d="m64.385 188.054h-42.579l-18.805 31.342h80.189z" fill="#eb586f" data-original="#000000" style="" class=""/><path xmlns="http://www.w3.org/2000/svg" d="m82.274 14.167-11.754 25.861v10.903 97.02l11.754-23.506z" fill="#eb586f" data-original="#000000" style="" class=""/><path xmlns="http://www.w3.org/2000/svg" d="m15.671 67.527-15.671 31.342v110.302l15.671-26.12z" fill="#eb586f" data-original="#000000" style="" class=""/><path xmlns="http://www.w3.org/2000/svg" d="m130.784 129.287h-42.171l-15.672 31.342h17.168 39.178 17.168z" fill="#eb586f" data-original="#000000" style="" class=""/><path xmlns="http://www.w3.org/2000/svg" d="m156.712 164.547v15.671h39.178v-125.369h-39.178z" fill="#eb586f" data-original="#000000" style="" class=""/><path xmlns="http://www.w3.org/2000/svg" d="m197.59 188.054h-42.579l-18.805 31.342h80.189z" fill="#eb586f" data-original="#000000" style="" class=""/><path xmlns="http://www.w3.org/2000/svg" d="m23.507 180.218h39.178v-15.671-109.698h-39.178z" fill="#eb586f" data-original="#000000" style="" class=""/><path xmlns="http://www.w3.org/2000/svg" d="m137.123 124.445 11.753 23.506v-97.02-10.903l-11.753-25.861z" fill="#eb586f" data-original="#000000" style="" class=""/></g></svg>
